<svg version="1.1" xmlns="http://www.w3.org/2000/svg" xmlns:xlink="http://www.w3.org/1999/xlink" style="display: none;">
    <defs>
        <g id="soc_fb">
            <path d="M1365,921h-3.99v-6.006h2.2l0.33-1.991h-2.53V911.08a0.917,0.917,0,0,1,1.08-1.085h1.42v-1.9a8.358,8.358,0,0,0-1.42-.112,2.917,2.917,0,0,0-3.09,2.984V913h-2v1.991h2V921h-6a2,2,0,0,1-2-2V907a2,2,0,0,1,2-2h12a2,2,0,0,1,2,2v12A2,2,0,0,1,1365,921Zm-3.99,0h0Z" transform="translate(-1351 -905)"/>
        </g>
        <g id="soc_fl">
            <path d="M2847,921h5V905h-5v16Zm6-11h10v-5h-10v5Zm0,6h5v-5h-5v5Z" transform="translate(-2847 -905)"/>
        </g>
        <g id="soc_gp">
            <path d="M2895,912v2.4h3.97a3.78,3.78,0,0,1-3.97,3.02,4.421,4.421,0,0,1,0-8.84,3.939,3.939,0,0,1,2.79,1.08l1.9-1.83A6.71,6.71,0,0,0,2895,906a7,7,0,0,0,0,14,6.782,6.782,0,0,0,6.61-8H2895Zm0,0,17,2h-3v3h-2v-3h-3v-2h3v-3h2v3h3v2Z" transform="translate(-2888 -906)"/>
        </g>
        <g id="soc_ok">
            <path d="M2809,913.547a4.773,4.773,0,1,0-4.9-4.77A4.845,4.845,0,0,0,2809,913.547Zm0-6.746a1.976,1.976,0,1,1-2.03,1.976A2.005,2.005,0,0,1,2809,906.8Zm1.99,10.639a9.348,9.348,0,0,0,2.85-1.147,1.38,1.38,0,0,0,.45-1.928,1.459,1.459,0,0,0-1.98-.44,6.386,6.386,0,0,1-6.61,0,1.457,1.457,0,0,0-1.98.44,1.38,1.38,0,0,0,.45,1.928,9.373,9.373,0,0,0,2.85,1.147l-2.74,2.668a1.373,1.373,0,0,0,0,1.977,1.464,1.464,0,0,0,2.03,0l2.69-2.622,2.7,2.622a1.463,1.463,0,0,0,2.03,0,1.373,1.373,0,0,0,0-1.977Z" transform="translate(-2803.5 -904)"/>
        </g>
        <g id="soc_tw">
            <path d="M2684.01,906.89a8.263,8.263,0,0,1-2.36.636,4.077,4.077,0,0,0,1.81-2.236,8.307,8.307,0,0,1-2.61.981,4.14,4.14,0,0,0-3-1.277,4.062,4.062,0,0,0-4,4.964,11.75,11.75,0,0,1-8.47-4.223,4.012,4.012,0,0,0,1.27,5.4,4.171,4.171,0,0,1-1.86-.506,4.065,4.065,0,0,0,3.3,4.014,4.2,4.2,0,0,1-1.86.069,4.111,4.111,0,0,0,3.84,2.807,8.355,8.355,0,0,1-6.08,1.674,11.779,11.779,0,0,0,6.3,1.816,11.51,11.51,0,0,0,11.67-12.023A8.317,8.317,0,0,0,2684.01,906.89Z" transform="translate(-2664 -905)"/>
        </g>
        <g id="soc_vk">
            <path d="M2762.87,918.956h1.2a1.03,1.03,0,0,0,.55-0.24,0.862,0.862,0,0,0,.16-0.527s-0.02-1.612.73-1.85c0.73-.234,1.68,1.558,2.68,2.247a1.891,1.891,0,0,0,1.33.408l2.68-.038s1.41-.087.74-1.191a8.953,8.953,0,0,0-1.99-2.309c-1.68-1.562-1.46-1.309.57-4.011,1.23-1.646,1.72-2.65,1.57-3.081a1.18,1.18,0,0,0-1.06-.3l-3.01.019a0.68,0.68,0,0,0-.39.068,0.9,0.9,0,0,0-.27.324,18.18,18.18,0,0,1-1.11,2.357c-1.35,2.285-1.88,2.406-2.1,2.264-0.51-.331-0.39-1.329-0.39-2.037,0-2.215.34-3.138-.65-3.377a5.2,5.2,0,0,0-1.41-.141,6.454,6.454,0,0,0-2.5.257c-0.35.168-.61,0.544-0.45,0.565a1.355,1.355,0,0,1,.89.448,2.919,2.919,0,0,1,.3,1.368s0.18,2.607-.41,2.93c-0.41.223-.97-0.231-2.17-2.3a19.282,19.282,0,0,1-1.07-2.236,0.9,0.9,0,0,0-.25-0.336,1.292,1.292,0,0,0-.47-0.188l-2.86.019a0.986,0.986,0,0,0-.59.2,0.629,0.629,0,0,0-.01.512s2.24,5.26,4.78,7.911a6.885,6.885,0,0,0,4.98,2.271h0Z" transform="translate(-2753.06 -907.531)"/>
        </g>
        <g id="like">
            <path transform="scale(1, 1) " fill-rule="evenodd" d="M18.895 10.605c.609 0 1.102.496 1.102 1.108v.043a16.864 16.864 0 0 1-.819 4.253l-.003.01a16.834 16.834 0 0 1-2.716 5.075l-.002.003-.159.19H7.923v-9.43L12.78 6.05l.003-.004a4.77 4.77 0 0 0 .774-1.447l.003-.007a4.84 4.84 0 0 0 .234-1.22c.2-.2.475-.323.779-.323.568 0 .956.379 1.187 1.024.276.77.252 1.643.252 1.643a4.828 4.828 0 0 1-1.042 3l.002.002-1.6 1.888H18.894zM3.015 21.287v-9.43h3.272v9.43H3.014z"/>
        </g>
        <g id="dislike">
            <path transform="scale(1, 1) translate(11.5, 16) rotate(180) translate(-11.5, -16)" fill-rule="evenodd" d="M18.895 10.605c.609 0 1.102.496 1.102 1.108v.043a16.864 16.864 0 0 1-.819 4.253l-.003.01a16.834 16.834 0 0 1-2.716 5.075l-.002.003-.159.19H7.923v-9.43L12.78 6.05l.003-.004a4.77 4.77 0 0 0 .774-1.447l.003-.007a4.84 4.84 0 0 0 .234-1.22c.2-.2.475-.323.779-.323.568 0 .956.379 1.187 1.024.276.77.252 1.643.252 1.643a4.828 4.828 0 0 1-1.042 3l.002.002-1.6 1.888H18.894zM3.015 21.287v-9.43h3.272v9.43H3.014z"/>
        </g>
    </defs>
</svg>