<svg fill="#000000" xmlns="http://www.w3.org/2000/svg" viewBox="0 0 24 24" width="48px" height="48px">
    <path transform="scale(1, 1) " fill-rule="evenodd" d="M18.895 10.605c.609 0 1.102.496 1.102 1.108v.043a16.864 16.864 0 0 1-.819 4.253l-.003.01a16.834 16.834 0 0 1-2.716 5.075l-.002.003-.159.19H7.923v-9.43L12.78 6.05l.003-.004a4.77 4.77 0 0 0 .774-1.447l.003-.007a4.84 4.84 0 0 0 .234-1.22c.2-.2.475-.323.779-.323.568 0 .956.379 1.187 1.024.276.77.252 1.643.252 1.643a4.828 4.828 0 0 1-1.042 3l.002.002-1.6 1.888H18.894zM3.015 21.287v-9.43h3.272v9.43H3.014z"/>
</svg>
