<svg fill="#000000" xmlns="http://www.w3.org/2000/svg" viewBox="0 0 24 24" width="48px" height="48px">
    <path d="M2684.01,906.89a8.263,8.263,0,0,1-2.36.636,4.077,4.077,0,0,0,1.81-2.236,8.307,8.307,0,0,1-2.61.981,4.14,4.14,0,0,0-3-1.277,4.062,4.062,0,0,0-4,4.964,11.75,11.75,0,0,1-8.47-4.223,4.012,4.012,0,0,0,1.27,5.4,4.171,4.171,0,0,1-1.86-.506,4.065,4.065,0,0,0,3.3,4.014,4.2,4.2,0,0,1-1.86.069,4.111,4.111,0,0,0,3.84,2.807,8.355,8.355,0,0,1-6.08,1.674,11.779,11.779,0,0,0,6.3,1.816,11.51,11.51,0,0,0,11.67-12.023A8.317,8.317,0,0,0,2684.01,906.89Z" transform="translate(-2664 -905)"/>
</svg>
