<svg fill="#000000" xmlns="http://www.w3.org/2000/svg" viewBox="0 0 24 24" width="48px" height="48px">
    <path d="M2762.87,918.956h1.2a1.03,1.03,0,0,0,.55-0.24,0.862,0.862,0,0,0,.16-0.527s-0.02-1.612.73-1.85c0.73-.234,1.68,1.558,2.68,2.247a1.891,1.891,0,0,0,1.33.408l2.68-.038s1.41-.087.74-1.191a8.953,8.953,0,0,0-1.99-2.309c-1.68-1.562-1.46-1.309.57-4.011,1.23-1.646,1.72-2.65,1.57-3.081a1.18,1.18,0,0,0-1.06-.3l-3.01.019a0.68,0.68,0,0,0-.39.068,0.9,0.9,0,0,0-.27.324,18.18,18.18,0,0,1-1.11,2.357c-1.35,2.285-1.88,2.406-2.1,2.264-0.51-.331-0.39-1.329-0.39-2.037,0-2.215.34-3.138-.65-3.377a5.2,5.2,0,0,0-1.41-.141,6.454,6.454,0,0,0-2.5.257c-0.35.168-.61,0.544-0.45,0.565a1.355,1.355,0,0,1,.89.448,2.919,2.919,0,0,1,.3,1.368s0.18,2.607-.41,2.93c-0.41.223-.97-0.231-2.17-2.3a19.282,19.282,0,0,1-1.07-2.236,0.9,0.9,0,0,0-.25-0.336,1.292,1.292,0,0,0-.47-0.188l-2.86.019a0.986,0.986,0,0,0-.59.2,0.629,0.629,0,0,0-.01.512s2.24,5.26,4.78,7.911a6.885,6.885,0,0,0,4.98,2.271h0Z" transform="translate(-2753.06 -907.531)"/>
</svg>
