<svg fill="#000000" xmlns="http://www.w3.org/2000/svg" viewBox="0 0 24 24" width="48px" height="48px">
    <path d="M2809,913.547a4.773,4.773,0,1,0-4.9-4.77A4.845,4.845,0,0,0,2809,913.547Zm0-6.746a1.976,1.976,0,1,1-2.03,1.976A2.005,2.005,0,0,1,2809,906.8Zm1.99,10.639a9.348,9.348,0,0,0,2.85-1.147,1.38,1.38,0,0,0,.45-1.928,1.459,1.459,0,0,0-1.98-.44,6.386,6.386,0,0,1-6.61,0,1.457,1.457,0,0,0-1.98.44,1.38,1.38,0,0,0,.45,1.928,9.373,9.373,0,0,0,2.85,1.147l-2.74,2.668a1.373,1.373,0,0,0,0,1.977,1.464,1.464,0,0,0,2.03,0l2.69-2.622,2.7,2.622a1.463,1.463,0,0,0,2.03,0,1.373,1.373,0,0,0,0-1.977Z" transform="translate(-2803.5 -904)"/>
</svg>
